# xmcd
#
# Track frame offsets:
#	150
#	10807
#	26172
#	35692
#	51495
#	69957
#	83250
#	96440
#	119460
#	132417
#	149637
#
# Disc length: 2180 seconds
#
# Revision: 3
# Processed by: cddbd v1.5.2PL0 Copyright (c) Steve Scherf et al.
# Submitted via: EZCDAudioConverter 3.1.0.1
#
DISCID=9b08820b
DTITLE=關正傑 - 人在江湖
DYEAR=1980
DGENRE=Pop
TTITLE0=關正傑 - 人在江湖 (麗的電視劇人在江湖主題曲)
TTITLE1=關正傑 - 良夜好歌聲 (香港電台節目良夜好歌聲主題曲)
TTITLE2=關正傑 - 誰會為我等 (麗的電視劇人在江湖插曲)
TTITLE3=關正傑 - 任你多瀟灑
TTITLE4=關正傑 - 莫苛求
TTITLE5=關正傑 - 明日再明日
TTITLE6=關正傑 and 雷安娜 - 人在旅途灑淚時 (麗的電視劇人在江湖插曲)
TTITLE7=關正傑 - 救世者 (電影救世者主題曲)
TTITLE8=關正傑 - 候鳥
TTITLE9=關正傑 - 人在雨下
TTITLE10=關正傑 - 碧水寒山奪命金 (電影碧水寒山奪命金主題曲)
EXTD=
EXTT0=
EXTT1=
EXTT2=
EXTT3=
EXTT4=
EXTT5=
EXTT6=
EXTT7=
EXTT8=
EXTT9=
EXTT10=
PLAYORDER=
